<mxfile host="Electron" modified="2024-07-28T10:54:09.104Z" agent="Mozilla/5.0 (Windows NT 10.0; Win64; x64) AppleWebKit/537.36 (KHTML, like Gecko) draw.io/24.5.3 Chrome/124.0.6367.207 Electron/30.0.6 Safari/537.36" etag="ex1IjWch281dQI71vHXF" version="24.5.3" type="device">
  <diagram id="C5RBs43oDa-KdzZeNtuy" name="Page-1">
    <mxGraphModel dx="760" dy="529" grid="1" gridSize="10" guides="1" tooltips="1" connect="1" arrows="1" fold="1" page="1" pageScale="1" pageWidth="827" pageHeight="1169" math="0" shadow="0">
      <root>
        <mxCell id="WIyWlLk6GJQsqaUBKTNV-0" />
        <mxCell id="WIyWlLk6GJQsqaUBKTNV-1" parent="WIyWlLk6GJQsqaUBKTNV-0" />
        <mxCell id="HJ7qVye4_wSLy5km3jp6-0" value="&lt;font face=&quot;Lucida Console&quot;&gt;iverilog/gtkwave&lt;/font&gt;&lt;div&gt;&lt;i&gt;(Design &amp;amp; Verification)&lt;/i&gt;&lt;/div&gt;" style="rounded=1;whiteSpace=wrap;html=1;fontSize=12;glass=0;strokeWidth=1;shadow=1;" vertex="1" parent="WIyWlLk6GJQsqaUBKTNV-1">
          <mxGeometry x="390" y="80" width="160" height="50" as="geometry" />
        </mxCell>
        <mxCell id="HJ7qVye4_wSLy5km3jp6-3" value="" style="endArrow=classic;html=1;rounded=0;exitX=1;exitY=0.5;exitDx=0;exitDy=0;entryX=0;entryY=0.5;entryDx=0;entryDy=0;" edge="1" parent="WIyWlLk6GJQsqaUBKTNV-1" target="HJ7qVye4_wSLy5km3jp6-0">
          <mxGeometry width="50" height="50" relative="1" as="geometry">
            <mxPoint x="350" y="105" as="sourcePoint" />
            <mxPoint x="350" y="220" as="targetPoint" />
          </mxGeometry>
        </mxCell>
        <mxCell id="HJ7qVye4_wSLy5km3jp6-21" value="" style="edgeStyle=orthogonalEdgeStyle;rounded=0;orthogonalLoop=1;jettySize=auto;html=1;" edge="1" parent="WIyWlLk6GJQsqaUBKTNV-1" source="HJ7qVye4_wSLy5km3jp6-5" target="HJ7qVye4_wSLy5km3jp6-0">
          <mxGeometry relative="1" as="geometry" />
        </mxCell>
        <mxCell id="HJ7qVye4_wSLy5km3jp6-5" value="&lt;div&gt;&lt;font face=&quot;Lucida Console&quot;&gt;yosys&lt;/font&gt;&lt;/div&gt;&lt;div&gt;&lt;i&gt;(Synthesis)&lt;/i&gt;&lt;/div&gt;" style="rounded=1;whiteSpace=wrap;html=1;fontSize=12;glass=0;strokeWidth=1;shadow=1;" vertex="1" parent="WIyWlLk6GJQsqaUBKTNV-1">
          <mxGeometry x="390" y="160" width="160" height="70" as="geometry" />
        </mxCell>
        <mxCell id="HJ7qVye4_wSLy5km3jp6-8" style="edgeStyle=orthogonalEdgeStyle;rounded=0;orthogonalLoop=1;jettySize=auto;html=1;entryX=0;entryY=0.25;entryDx=0;entryDy=0;" edge="1" parent="WIyWlLk6GJQsqaUBKTNV-1" source="HJ7qVye4_wSLy5km3jp6-6" target="HJ7qVye4_wSLy5km3jp6-5">
          <mxGeometry relative="1" as="geometry" />
        </mxCell>
        <mxCell id="HJ7qVye4_wSLy5km3jp6-6" value="&lt;div&gt;&lt;font face=&quot;Lucida Console&quot;&gt;input.v&lt;/font&gt;&lt;/div&gt;&lt;div&gt;&lt;i&gt;(Verilog Code)&lt;/i&gt;&lt;/div&gt;" style="shape=card;whiteSpace=wrap;html=1;size=20;" vertex="1" parent="WIyWlLk6GJQsqaUBKTNV-1">
          <mxGeometry x="240" y="85" width="100" height="40" as="geometry" />
        </mxCell>
        <mxCell id="HJ7qVye4_wSLy5km3jp6-7" value="" style="endArrow=classic;html=1;rounded=0;entryX=0.5;entryY=0;entryDx=0;entryDy=0;" edge="1" parent="WIyWlLk6GJQsqaUBKTNV-1" target="HJ7qVye4_wSLy5km3jp6-5">
          <mxGeometry width="50" height="50" relative="1" as="geometry">
            <mxPoint x="470" y="130" as="sourcePoint" />
            <mxPoint x="520" y="80" as="targetPoint" />
          </mxGeometry>
        </mxCell>
        <mxCell id="HJ7qVye4_wSLy5km3jp6-17" style="edgeStyle=orthogonalEdgeStyle;rounded=0;orthogonalLoop=1;jettySize=auto;html=1;exitX=0.5;exitY=0;exitDx=0;exitDy=0;exitPerimeter=0;entryX=1;entryY=0.5;entryDx=0;entryDy=0;" edge="1" parent="WIyWlLk6GJQsqaUBKTNV-1" source="HJ7qVye4_wSLy5km3jp6-9" target="HJ7qVye4_wSLy5km3jp6-0">
          <mxGeometry relative="1" as="geometry" />
        </mxCell>
        <mxCell id="HJ7qVye4_wSLy5km3jp6-36" style="edgeStyle=orthogonalEdgeStyle;rounded=0;orthogonalLoop=1;jettySize=auto;html=1;exitX=0.5;exitY=1;exitDx=0;exitDy=0;exitPerimeter=0;entryX=1;entryY=0.5;entryDx=0;entryDy=0;" edge="1" parent="WIyWlLk6GJQsqaUBKTNV-1" source="HJ7qVye4_wSLy5km3jp6-9" target="HJ7qVye4_wSLy5km3jp6-20">
          <mxGeometry relative="1" as="geometry" />
        </mxCell>
        <mxCell id="HJ7qVye4_wSLy5km3jp6-37" style="edgeStyle=orthogonalEdgeStyle;rounded=0;orthogonalLoop=1;jettySize=auto;html=1;exitX=0.5;exitY=1;exitDx=0;exitDy=0;exitPerimeter=0;entryX=1;entryY=0.5;entryDx=0;entryDy=0;" edge="1" parent="WIyWlLk6GJQsqaUBKTNV-1" source="HJ7qVye4_wSLy5km3jp6-9" target="HJ7qVye4_wSLy5km3jp6-26">
          <mxGeometry relative="1" as="geometry" />
        </mxCell>
        <mxCell id="HJ7qVye4_wSLy5km3jp6-9" value="&lt;div&gt;&lt;font face=&quot;Lucida Console&quot;&gt;synth.v&lt;/font&gt;&lt;/div&gt;&lt;div&gt;&lt;i&gt;(Synthesized Netlist)&lt;/i&gt;&lt;/div&gt;" style="shape=card;whiteSpace=wrap;html=1;size=20;" vertex="1" parent="WIyWlLk6GJQsqaUBKTNV-1">
          <mxGeometry x="610" y="160" width="130" height="40" as="geometry" />
        </mxCell>
        <mxCell id="HJ7qVye4_wSLy5km3jp6-10" value="" style="endArrow=classic;html=1;rounded=0;entryX=0;entryY=0;entryDx=0;entryDy=30;entryPerimeter=0;" edge="1" parent="WIyWlLk6GJQsqaUBKTNV-1" target="HJ7qVye4_wSLy5km3jp6-9">
          <mxGeometry width="50" height="50" relative="1" as="geometry">
            <mxPoint x="550" y="190" as="sourcePoint" />
            <mxPoint x="600" y="140" as="targetPoint" />
            <Array as="points">
              <mxPoint x="580" y="190" />
            </Array>
          </mxGeometry>
        </mxCell>
        <mxCell id="HJ7qVye4_wSLy5km3jp6-11" value="&lt;div&gt;&lt;span style=&quot;background-color: initial;&quot;&gt;&lt;font face=&quot;Lucida Console&quot;&gt;sky130hd_tt.lib&lt;/font&gt;&lt;/span&gt;&lt;/div&gt;&lt;div&gt;&lt;i style=&quot;background-color: initial;&quot;&gt;(TechLib)&lt;/i&gt;&lt;br&gt;&lt;/div&gt;" style="shape=cylinder3;whiteSpace=wrap;html=1;boundedLbl=1;backgroundOutline=1;size=6.960327148437443;" vertex="1" parent="WIyWlLk6GJQsqaUBKTNV-1">
          <mxGeometry x="220" y="147.5" width="120" height="52.5" as="geometry" />
        </mxCell>
        <mxCell id="HJ7qVye4_wSLy5km3jp6-14" value="" style="endArrow=classic;html=1;rounded=0;entryX=0;entryY=0.5;entryDx=0;entryDy=0;exitX=1;exitY=0.5;exitDx=0;exitDy=0;exitPerimeter=0;" edge="1" parent="WIyWlLk6GJQsqaUBKTNV-1" source="HJ7qVye4_wSLy5km3jp6-11" target="HJ7qVye4_wSLy5km3jp6-5">
          <mxGeometry width="50" height="50" relative="1" as="geometry">
            <mxPoint x="350" y="200" as="sourcePoint" />
            <mxPoint x="400" y="150" as="targetPoint" />
            <Array as="points">
              <mxPoint x="360" y="195" />
            </Array>
          </mxGeometry>
        </mxCell>
        <mxCell id="HJ7qVye4_wSLy5km3jp6-16" style="edgeStyle=orthogonalEdgeStyle;rounded=0;orthogonalLoop=1;jettySize=auto;html=1;exitX=1;exitY=0.5;exitDx=0;exitDy=0;exitPerimeter=0;entryX=0;entryY=0.75;entryDx=0;entryDy=0;" edge="1" parent="WIyWlLk6GJQsqaUBKTNV-1" source="HJ7qVye4_wSLy5km3jp6-15" target="HJ7qVye4_wSLy5km3jp6-5">
          <mxGeometry relative="1" as="geometry" />
        </mxCell>
        <mxCell id="HJ7qVye4_wSLy5km3jp6-15" value="&lt;div&gt;&lt;span style=&quot;background-color: initial;&quot;&gt;&lt;font face=&quot;Lucida Console&quot;&gt;synthesis.tcl&lt;/font&gt;&lt;/span&gt;&lt;/div&gt;&lt;div&gt;&lt;i style=&quot;background-color: initial;&quot;&gt;(Flow Script)&lt;/i&gt;&lt;br&gt;&lt;/div&gt;" style="shape=card;whiteSpace=wrap;html=1;size=20;" vertex="1" parent="WIyWlLk6GJQsqaUBKTNV-1">
          <mxGeometry x="220" y="210" width="120" height="40" as="geometry" />
        </mxCell>
        <mxCell id="HJ7qVye4_wSLy5km3jp6-19" value="Gate-Level Verification" style="text;strokeColor=none;align=center;fillColor=none;html=1;verticalAlign=middle;whiteSpace=wrap;rounded=0;" vertex="1" parent="WIyWlLk6GJQsqaUBKTNV-1">
          <mxGeometry x="570" y="80" width="130" height="30" as="geometry" />
        </mxCell>
        <mxCell id="HJ7qVye4_wSLy5km3jp6-27" style="edgeStyle=orthogonalEdgeStyle;rounded=0;orthogonalLoop=1;jettySize=auto;html=1;exitX=0.5;exitY=1;exitDx=0;exitDy=0;entryX=0.5;entryY=0;entryDx=0;entryDy=0;" edge="1" parent="WIyWlLk6GJQsqaUBKTNV-1" source="HJ7qVye4_wSLy5km3jp6-20" target="HJ7qVye4_wSLy5km3jp6-26">
          <mxGeometry relative="1" as="geometry" />
        </mxCell>
        <mxCell id="HJ7qVye4_wSLy5km3jp6-20" value="&lt;div&gt;&lt;font face=&quot;Lucida Console&quot;&gt;OpenSTA&lt;/font&gt;&lt;/div&gt;&lt;div&gt;&lt;i&gt;(Static-Time Analysis)&lt;/i&gt;&lt;/div&gt;" style="rounded=1;whiteSpace=wrap;html=1;fontSize=12;glass=0;strokeWidth=1;shadow=1;" vertex="1" parent="WIyWlLk6GJQsqaUBKTNV-1">
          <mxGeometry x="390" y="260" width="160" height="60" as="geometry" />
        </mxCell>
        <mxCell id="HJ7qVye4_wSLy5km3jp6-22" value="" style="endArrow=classic;html=1;rounded=0;exitX=0.5;exitY=1;exitDx=0;exitDy=0;entryX=0.5;entryY=0;entryDx=0;entryDy=0;" edge="1" parent="WIyWlLk6GJQsqaUBKTNV-1" source="HJ7qVye4_wSLy5km3jp6-5" target="HJ7qVye4_wSLy5km3jp6-20">
          <mxGeometry width="50" height="50" relative="1" as="geometry">
            <mxPoint x="420" y="230" as="sourcePoint" />
            <mxPoint x="470" y="180" as="targetPoint" />
          </mxGeometry>
        </mxCell>
        <mxCell id="HJ7qVye4_wSLy5km3jp6-34" style="edgeStyle=none;rounded=0;orthogonalLoop=1;jettySize=auto;html=1;exitX=1;exitY=0.5;exitDx=0;exitDy=0;exitPerimeter=0;entryX=0;entryY=0.5;entryDx=0;entryDy=0;" edge="1" parent="WIyWlLk6GJQsqaUBKTNV-1" source="HJ7qVye4_wSLy5km3jp6-24" target="HJ7qVye4_wSLy5km3jp6-20">
          <mxGeometry relative="1" as="geometry" />
        </mxCell>
        <mxCell id="HJ7qVye4_wSLy5km3jp6-40" style="edgeStyle=orthogonalEdgeStyle;rounded=0;orthogonalLoop=1;jettySize=auto;html=1;exitX=1;exitY=0.5;exitDx=0;exitDy=0;exitPerimeter=0;entryX=0;entryY=0.25;entryDx=0;entryDy=0;" edge="1" parent="WIyWlLk6GJQsqaUBKTNV-1" source="HJ7qVye4_wSLy5km3jp6-24" target="HJ7qVye4_wSLy5km3jp6-26">
          <mxGeometry relative="1" as="geometry" />
        </mxCell>
        <mxCell id="HJ7qVye4_wSLy5km3jp6-24" value="&lt;div&gt;&lt;span style=&quot;background-color: initial;&quot;&gt;&lt;font face=&quot;Lucida Console&quot;&gt;top.sdc&lt;/font&gt;&lt;/span&gt;&lt;/div&gt;&lt;div&gt;&lt;i style=&quot;background-color: initial;&quot;&gt;(Timing Constrain File)&lt;/i&gt;&lt;br&gt;&lt;/div&gt;" style="shape=card;whiteSpace=wrap;html=1;size=20;" vertex="1" parent="WIyWlLk6GJQsqaUBKTNV-1">
          <mxGeometry x="210" y="270" width="130" height="40" as="geometry" />
        </mxCell>
        <mxCell id="HJ7qVye4_wSLy5km3jp6-28" style="edgeStyle=orthogonalEdgeStyle;rounded=0;orthogonalLoop=1;jettySize=auto;html=1;exitX=0.5;exitY=1;exitDx=0;exitDy=0;" edge="1" parent="WIyWlLk6GJQsqaUBKTNV-1" source="HJ7qVye4_wSLy5km3jp6-26">
          <mxGeometry relative="1" as="geometry">
            <mxPoint x="469.9677419354839" y="440.0000000000001" as="targetPoint" />
          </mxGeometry>
        </mxCell>
        <mxCell id="HJ7qVye4_wSLy5km3jp6-26" value="&lt;div&gt;&lt;font face=&quot;Lucida Console&quot;&gt;OpenROAD&lt;/font&gt;&lt;/div&gt;&lt;div&gt;&lt;i&gt;(Physical Design [PnR, CTS, etc])&lt;/i&gt;&lt;/div&gt;" style="rounded=1;whiteSpace=wrap;html=1;fontSize=12;glass=0;strokeWidth=1;shadow=1;" vertex="1" parent="WIyWlLk6GJQsqaUBKTNV-1">
          <mxGeometry x="390" y="350" width="160" height="60" as="geometry" />
        </mxCell>
        <mxCell id="HJ7qVye4_wSLy5km3jp6-33" value="Layout/GDS" style="text;strokeColor=none;align=center;fillColor=none;html=1;verticalAlign=middle;whiteSpace=wrap;rounded=0;" vertex="1" parent="WIyWlLk6GJQsqaUBKTNV-1">
          <mxGeometry x="405" y="440" width="130" height="30" as="geometry" />
        </mxCell>
        <mxCell id="HJ7qVye4_wSLy5km3jp6-39" style="edgeStyle=orthogonalEdgeStyle;rounded=0;orthogonalLoop=1;jettySize=auto;html=1;exitX=1;exitY=0.5;exitDx=0;exitDy=0;exitPerimeter=0;entryX=0;entryY=0.5;entryDx=0;entryDy=0;" edge="1" parent="WIyWlLk6GJQsqaUBKTNV-1" source="HJ7qVye4_wSLy5km3jp6-38" target="HJ7qVye4_wSLy5km3jp6-26">
          <mxGeometry relative="1" as="geometry" />
        </mxCell>
        <mxCell id="HJ7qVye4_wSLy5km3jp6-38" value="&lt;div&gt;&lt;span style=&quot;background-color: initial;&quot;&gt;&lt;font face=&quot;Lucida Console&quot;&gt;physicalDesign.tcl&lt;/font&gt;&lt;/span&gt;&lt;/div&gt;&lt;div&gt;&lt;i style=&quot;background-color: initial;&quot;&gt;(PD Script)&lt;/i&gt;&lt;br&gt;&lt;/div&gt;" style="shape=card;whiteSpace=wrap;html=1;size=20;" vertex="1" parent="WIyWlLk6GJQsqaUBKTNV-1">
          <mxGeometry x="180" y="360" width="160" height="40" as="geometry" />
        </mxCell>
        <mxCell id="HJ7qVye4_wSLy5km3jp6-42" style="edgeStyle=orthogonalEdgeStyle;rounded=0;orthogonalLoop=1;jettySize=auto;html=1;exitX=1;exitY=0.5;exitDx=0;exitDy=0;exitPerimeter=0;entryX=0;entryY=0.75;entryDx=0;entryDy=0;" edge="1" parent="WIyWlLk6GJQsqaUBKTNV-1" source="HJ7qVye4_wSLy5km3jp6-41" target="HJ7qVye4_wSLy5km3jp6-26">
          <mxGeometry relative="1" as="geometry" />
        </mxCell>
        <mxCell id="HJ7qVye4_wSLy5km3jp6-41" value="&lt;div&gt;&lt;span style=&quot;background-color: initial;&quot;&gt;&lt;font face=&quot;Lucida Console&quot;&gt;sky130hd_tt.lef&lt;/font&gt;&lt;/span&gt;&lt;/div&gt;&lt;div&gt;&lt;span style=&quot;font-family: &amp;quot;Lucida Console&amp;quot;;&quot;&gt;sky130hd_tt.lib&lt;/span&gt;&lt;span style=&quot;background-color: initial;&quot;&gt;&lt;font face=&quot;Lucida Console&quot;&gt;&lt;br&gt;&lt;/font&gt;&lt;/span&gt;&lt;/div&gt;&lt;div&gt;&lt;i style=&quot;background-color: initial;&quot;&gt;(TechLib)&lt;/i&gt;&lt;br&gt;&lt;/div&gt;" style="shape=cylinder3;whiteSpace=wrap;html=1;boundedLbl=1;backgroundOutline=1;size=6.960327148437443;" vertex="1" parent="WIyWlLk6GJQsqaUBKTNV-1">
          <mxGeometry x="220" y="410" width="120" height="70" as="geometry" />
        </mxCell>
      </root>
    </mxGraphModel>
  </diagram>
</mxfile>
